HIERARCHY
ROOT Hips
{
    OFFSET 0.0 0.0 0.0
    CHANNELS 6 Xposition Yposition Zposition Zrotation Xrotation Yrotation
    JOINT Spine
    {
        OFFSET 0.0 24.596717279374445 0.0
        CHANNELS 3 Zrotation Xrotation Yrotation
        JOINT Chest
        {
            OFFSET 0.0 24.596717279374438 0.0
            CHANNELS 3 Zrotation Xrotation Yrotation
            JOINT Head
            {
                OFFSET 0.0 16.017393901309145 0.0
                CHANNELS 3 Zrotation Xrotation Yrotation
            }
            JOINT LeftUpperArm
            {
                OFFSET 15.321035040924121 0.0 0.0
                CHANNELS 3 Zrotation Xrotation Yrotation
                JOINT LeftLowerArm
                {
                    OFFSET 22.74295587399714 0.0 0.0
                    CHANNELS 3 Zrotation Xrotation Yrotation
                    JOINT LeftHand
                    {
                        OFFSET 19.14833325983384 0.0 0.0
                        CHANNELS 3 Zrotation Xrotation Yrotation
                    }
                    End Site
                    {
                    OFFSET 7.593501558046688 0.0 0.0
                    }
                }
            }
            JOINT RightUpperArm
            {
                OFFSET -15.321035040924121 0.0 0.0
                CHANNELS 3 Zrotation Xrotation Yrotation
                JOINT RightLowerArm
                {
                    OFFSET 22.74295587399714 0.0 0.0
                    CHANNELS 3 Zrotation Xrotation Yrotation
                    JOINT RightHand
                    {
                        OFFSET 19.14833325983384 0.0 0.0
                        CHANNELS 3 Zrotation Xrotation Yrotation
                    }
                    End Site
                    {
                    OFFSET 7.593501558046688 0.0 0.0
                    }
                }
            }
        }
    }
    JOINT LeftUpperLeg
    {
        OFFSET 10.085639640366214 0.0 0.0
        CHANNELS 3 Zrotation Xrotation Yrotation
        JOINT LeftLowerLeg
        {
            OFFSET 38.320029043284094 0.0 0.0
            CHANNELS 3 Zrotation Xrotation Yrotation
            JOINT LeftFootAnkle
            {
                OFFSET 39.23488390235951 0.0 0.0
                CHANNELS 3 Zrotation Xrotation Yrotation
                End Site
                {
                OFFSET 10.742552532151704 0.0 0.0
                }
            }
        }
    }
    JOINT RightUpperLeg
    {
        OFFSET -10.085639640366214 0.0 0.0
        CHANNELS 3 Zrotation Xrotation Yrotation
        JOINT RightLowerLeg
        {
            OFFSET 38.320029043284094 0.0 0.0
            CHANNELS 3 Zrotation Xrotation Yrotation
            JOINT RightFootAnkle
            {
                OFFSET 39.23488390235951 0.0 0.0
                CHANNELS 3 Zrotation Xrotation Yrotation
                End Site
                {
                OFFSET 10.742552532151704 0.0 0.0
                }
            }
        }
    }
}
MOTION
Frames: 4
Frame Time: 0.03333333333333333
-0.11887208971721505 -0.2315704593259662 0.028398546344855898 -5.573772495345452 8.476502469385997 23.588617704225502 0.861376169368321 0.9589024692803354 -15.609604259829748 1.086889188281481 0.6905187434313194 -15.594542489679947 -26.54378555879736 -7.660062545738653 -114.46742077246451 128.44134290538156 63.055506729974006 -112.76403327025814 -21.840298096255314 -0.30989477365638396 90.77316387651722 -25.40334828621975 46.97314167494017 32.01532939076333 71.62047582968842 22.950932432515152 -156.33479098327865 94.70141990806859 -80.24296476145264 94.63371337523509 0.9808104354593207 -7.166352119508695 -123.49101208558993 -98.89152295913873 -64.86430886321605 -10.725452083830007 -143.500897124941 23.611755624022283 180.0 -138.68844816112846 22.567204253768274 180.0 143.2828763793351 -74.07493197587347 -125.16191406262863 -154.2519791617879 -31.851451157342463 180.0 -103.22527039203122 4.338306720334547 180.0
-0.11671613817853521 -0.2321995301558747 0.026252655447060482 -5.549227073835008 8.367323190522058 23.263846392240527 0.564043651424465 1.0214005043457226 -15.588510033455679 0.817214098930417 0.8312383018559961 -15.579362513420067 -25.778742092638094 -7.712895670442811 -114.32571043340508 125.4433314489783 61.41055940283836 -113.6886826319758 -24.624245199411884 -1.1265141005221055 92.4561079905924 -27.923503576998346 51.1132470950484 31.329256961386562 74.12851817967437 20.064905260117293 -156.80832140990447 111.46872092211096 -79.58718044334005 111.14662352920558 3.342167028152809 -12.814867459381125 -126.75606826022431 -103.26588489466097 -64.95724986377424 -15.523002299803501 -142.9023342692409 14.585170982387206 180.0 -136.94023347407895 26.878339135083227 180.0 154.92668734044452 -75.60417826592833 -114.20391999411257 -153.70151791186368 -30.10670376612008 180.0 -101.99382639568582 1.2375096416352511 180.0
-0.11851004428395061 -0.22997311527072095 0.030113092702775325 -5.514166854756054 8.478543490140698 23.179881193586365 0.012036184642836654 1.1640382316934001 -15.52966015977746 0.3232758108835393 1.1182811203386815 -15.532448311920673 -26.446567293157496 -7.830869046148751 -115.3687120153466 131.60811644099041 53.93264016699183 -127.36678946475233 135.7969443587957 0.7391855595887891 89.24002556708122 -151.0317032726314 -43.99627011888493 -156.21846090104083 76.7340746410992 16.76963407941138 -157.2652750410997 121.51481290935999 -75.63147449504088 120.70932509002733 -0.3243999203026014 -22.39719355670605 -125.11589128780133 -105.4033607924145 -66.31727098372856 -18.673716920374964 -142.4193577789322 8.63104279215584 180.0 -137.96433463166392 28.420998740029038 180.0 161.0446547162094 -75.53251532477324 -109.20539059785952 -153.17059979880423 -30.568978461722153 180.0 -101.79806948393015 -2.0771364850925984 180.0
-0.12002506185567235 -0.22433454466767871 0.04210392271079306 -6.3386830417014695 11.06293505199912 23.34641562697569 0.08414923380406437 1.3067461320001725 -14.91806480977733 0.41762282632837117 1.2407358970819156 -14.919708625019378 -30.853294382900934 -7.038103724539389 -118.59792725718435 132.43111142842352 45.70060795851902 -136.9561374375563 121.94932290065768 -2.2014367290413186 91.3723041797207 -144.30326911411984 -37.68659471145155 -160.91151538340944 79.14155281865744 11.785156750086404 -157.58803673938522 130.7598882849435 -67.59531631131821 128.551027544994 -6.601384120292826 -25.176683804208977 -122.56752504468004 -112.57571363408235 -66.4466902667563 -27.130301015821008 -141.9781607205487 7.099533414471695 180.0 -138.81569106497562 27.058454365652025 180.0 166.68488833282697 -72.79374532116867 -104.4851153810954 -153.07348091459056 -30.972715535787113 180.0 -101.46090819976996 -5.20534278705908 180.0
